<svg xmlns="http://www.w3.org/2000/svg" viewBox="0 0 400 300" width="400" height="300" role="img" aria-label="Context Mapping framework thumbnail">
<rect width="400" height="300" fill="#ffffff"/>
<rect width="400" height="8" fill="#f57c00"/><rect x="0" y="8" width="400" height="34" fill="#1B2A4A"/>
<text x="24" y="30" font-family="Arial, Helvetica, sans-serif" font-size="12" font-weight="700" fill="#ffffff">BCOBM126 · FRAMEWORK</text>
<text x="376" y="30" text-anchor="end" font-family="Arial, Helvetica, sans-serif" font-size="12" font-weight="700" fill="#cbd2e8">SLIBRARY 06</text>
<text x="24" y="66" font-family="Arial, Helvetica, sans-serif" font-size="9.5" font-weight="700" letter-spacing="1.2" fill="#B45309">SYSTEMS TOOL</text>
<text x="24" y="90" font-family="Arial, Helvetica, sans-serif" font-size="18" font-weight="700" fill="#2F3465">Context</text>
<text x="24" y="111" font-family="Arial, Helvetica, sans-serif" font-size="18" font-weight="700" fill="#2F3465">Mapping</text>
<rect x="24" y="128" width="34" height="3" fill="#f57c00"/>
<text x="24" y="148" font-family="Arial, Helvetica, sans-serif" font-size="11" fill="#5b6577">Map the wider forces</text>
<text x="24" y="163" font-family="Arial, Helvetica, sans-serif" font-size="11" fill="#5b6577">surrounding the problem</text>
<svg x="154.0" y="58.0" width="224.0" height="200.0" preserveAspectRatio="xMidYMid meet" xmlns="http://www.w3.org/2000/svg" xmlns:xlink="http://www.w3.org/1999/xlink" xmlns:inkscape="http://www.inkscape.org/namespaces/inkscape" version="1.1"  viewBox="0 0 195.6 152">
<path transform="matrix(1,0,0,-1,1,151)" d="M4 0H189.6C191.8112 0 193.6 1.7888 193.6 4V146C193.6 148.2112 191.8112 150 189.6 150H4C1.7888 150 0 148.2112 0 146V4C0 1.7888 1.7888 0 4 0Z" fill="#fafbfd" fill-rule="evenodd"/>
<path transform="matrix(1,0,0,-1,1,151)" stroke-width=".7" stroke-linecap="butt" stroke-miterlimit="10" stroke-linejoin="miter" fill="none" stroke="#d7dbe6" d="M4 0H189.6C191.8112 0 193.6 1.7888 193.6 4V146C193.6 148.2112 191.8112 150 189.6 150H4C1.7888 150 0 148.2112 0 146V4C0 1.7888 1.7888 0 4 0Z"/>
<path transform="matrix(1,0,0,-1,1,151)" stroke-width=".9" stroke-linecap="round" stroke-dasharray="2,1.5" stroke-miterlimit="10" stroke-linejoin="miter" fill="none" stroke="#fbc48c" d="M96.8 74V126"/>
<path transform="matrix(1,0,0,-1,1,151)" stroke-width=".9" stroke-linecap="round" stroke-dasharray="2,1.5" stroke-miterlimit="10" stroke-linejoin="miter" fill="none" stroke="#fbc48c" d="M96.8 74 152.2256 100"/>
<path transform="matrix(1,0,0,-1,1,151)" stroke-width=".9" stroke-linecap="round" stroke-dasharray="2,1.5" stroke-miterlimit="10" stroke-linejoin="miter" fill="none" stroke="#fbc48c" d="M96.8 74 152.2256 48"/>
<path transform="matrix(1,0,0,-1,1,151)" stroke-width=".9" stroke-linecap="round" stroke-dasharray="2,1.5" stroke-miterlimit="10" stroke-linejoin="miter" fill="none" stroke="#fbc48c" d="M96.8 74V22"/>
<path transform="matrix(1,0,0,-1,1,151)" stroke-width=".9" stroke-linecap="round" stroke-dasharray="2,1.5" stroke-miterlimit="10" stroke-linejoin="miter" fill="none" stroke="#fbc48c" d="M96.8 74 41.37437 48"/>
<path transform="matrix(1,0,0,-1,1,151)" stroke-width=".9" stroke-linecap="round" stroke-dasharray="2,1.5" stroke-miterlimit="10" stroke-linejoin="miter" fill="none" stroke="#fbc48c" d="M96.8 74 41.37437 100"/>
<path transform="matrix(1,0,0,-1,1,151)" d="M126.8 74C126.8 90.56854 113.3685 104 96.8 104 80.23146 104 66.8 90.56854 66.8 74 66.8 57.43146 80.23146 44 96.8 44 113.3685 44 126.8 57.43146 126.8 74" fill="#feeddb" fill-rule="evenodd"/>
<path transform="matrix(1,0,0,-1,1,151)" d="M77.8 118H115.8C120.2224 118 123.8 121.5776 123.8 126 123.8 130.4224 120.2224 134 115.8 134H77.8C73.3776 134 69.8 130.4224 69.8 126 69.8 121.5776 73.3776 118 77.8 118Z" fill="#ffffff" fill-rule="evenodd"/>
<path transform="matrix(1,0,0,-1,1,151)" stroke-width=".8" stroke-linecap="butt" stroke-miterlimit="10" stroke-linejoin="miter" fill="none" stroke="#f57c00" d="M77.8 118H115.8C120.2224 118 123.8 121.5776 123.8 126 123.8 130.4224 120.2224 134 115.8 134H77.8C73.3776 134 69.8 130.4224 69.8 126 69.8 121.5776 73.3776 118 77.8 118Z"/>
<text fill="#1b2a4a" xml:space="preserve" transform="matrix(1 0 -0 1 1 151)" font-size="6" font-family="Arial, Helvetica, sans-serif" font-weight="bold"><tspan y="-123.8" x="77.96 81.962 83.96 87.296 90.631999 93.967998 97.633998 101.299999 102.967998 106.633998 109.96999 112.30399">Stakeholders</tspan></text>
<path transform="matrix(1,0,0,-1,1,151)" d="M133.2256 92H171.2256C175.648 92 179.2256 95.5776 179.2256 100 179.2256 104.4224 175.648 108 171.2256 108H133.2256C128.8032 108 125.2256 104.4224 125.2256 100 125.2256 95.5776 128.8032 92 133.2256 92Z" fill="#ffffff" fill-rule="evenodd"/>
<path transform="matrix(1,0,0,-1,1,151)" stroke-width=".8" stroke-linecap="butt" stroke-miterlimit="10" stroke-linejoin="miter" fill="none" stroke="#2f3465" d="M133.2256 92H171.2256C175.648 92 179.2256 95.5776 179.2256 100 179.2256 104.4224 175.648 108 171.2256 108H133.2256C128.8032 108 125.2256 104.4224 125.2256 100 125.2256 95.5776 128.8032 92 133.2256 92Z"/>
<text fill="#1b2a4a" xml:space="preserve" transform="matrix(1 0 -0 1 1 151)" font-size="6" font-family="Arial, Helvetica, sans-serif" font-weight="bold"><tspan y="-97.8" x="142.2236 145.8896 148.2236 151.5596 155.2256 158.8916">Trends</tspan></text>
<path transform="matrix(1,0,0,-1,1,151)" d="M133.2256 40H171.2256C175.648 40 179.2256 43.5776 179.2256 48 179.2256 52.4224 175.648 56 171.2256 56H133.2256C128.8032 56 125.2256 52.4224 125.2256 48 125.2256 43.5776 128.8032 40 133.2256 40Z" fill="#ffffff" fill-rule="evenodd"/>
<path transform="matrix(1,0,0,-1,1,151)" stroke-width=".8" stroke-linecap="butt" stroke-miterlimit="10" stroke-linejoin="miter" fill="none" stroke="#f57c00" d="M133.2256 40H171.2256C175.648 40 179.2256 43.5776 179.2256 48 179.2256 52.4224 175.648 56 171.2256 56H133.2256C128.8032 56 125.2256 52.4224 125.2256 48 125.2256 43.5776 128.8032 40 133.2256 40Z"/>
<text fill="#1b2a4a" xml:space="preserve" transform="matrix(1 0 -0 1 1 151)" font-size="6" font-family="Arial, Helvetica, sans-serif" font-weight="bold"><tspan y="-45.8" x="135.3896 139.0556 142.3916 145.7276 149.3936 153.0596 156.7256 158.3936 162.0596 165.7256">Technology</tspan></text>
<path transform="matrix(1,0,0,-1,1,151)" d="M77.8 14H115.8C120.2224 14 123.8 17.5776 123.8 22 123.8 26.4224 120.2224 30 115.8 30H77.8C73.3776 30 69.8 26.4224 69.8 22 69.8 17.5776 73.3776 14 77.8 14Z" fill="#ffffff" fill-rule="evenodd"/>
<path transform="matrix(1,0,0,-1,1,151)" stroke-width=".8" stroke-linecap="butt" stroke-miterlimit="10" stroke-linejoin="miter" fill="none" stroke="#2f3465" d="M77.8 14H115.8C120.2224 14 123.8 17.5776 123.8 22 123.8 26.4224 120.2224 30 115.8 30H77.8C73.3776 30 69.8 26.4224 69.8 22 69.8 17.5776 73.3776 14 77.8 14Z"/>
<text fill="#1b2a4a" xml:space="preserve" transform="matrix(1 0 -0 1 1 151)" font-size="6" font-family="Arial, Helvetica, sans-serif" font-weight="bold"><tspan y="-19.8" x="79.133 83.465007 87.131008 92.465007 96.131008 99.467 101.465007 103.133 105.131008 108.797008 111.131008">Competitors</tspan></text>
<path transform="matrix(1,0,0,-1,1,151)" d="M22.37437 40H60.37437C64.79677 40 68.37437 43.5776 68.37437 48 68.37437 52.4224 64.79677 56 60.37437 56H22.37437C17.95197 56 14.37437 52.4224 14.37437 48 14.37437 43.5776 17.95197 40 22.37437 40Z" fill="#ffffff" fill-rule="evenodd"/>
<path transform="matrix(1,0,0,-1,1,151)" stroke-width=".8" stroke-linecap="butt" stroke-miterlimit="10" stroke-linejoin="miter" fill="none" stroke="#f57c00" d="M22.37437 40H60.37437C64.79677 40 68.37437 43.5776 68.37437 48 68.37437 52.4224 64.79677 56 60.37437 56H22.37437C17.95197 56 14.37437 52.4224 14.37437 48 14.37437 43.5776 17.95197 40 22.37437 40Z"/>
<text fill="#1b2a4a" xml:space="preserve" transform="matrix(1 0 -0 1 1 151)" font-size="6" font-family="Arial, Helvetica, sans-serif" font-weight="bold"><tspan y="-45.8" x="24.70637 29.03837 32.70437 36.37037 39.706369 41.70437 44.03837 47.374368 49.042367 52.708368 54.706369">Constraints</tspan></text>
<path transform="matrix(1,0,0,-1,1,151)" d="M22.37437 92H60.37437C64.79677 92 68.37437 95.5776 68.37437 100 68.37437 104.4224 64.79677 108 60.37437 108H22.37437C17.95197 108 14.37437 104.4224 14.37437 100 14.37437 95.5776 17.95197 92 22.37437 92Z" fill="#ffffff" fill-rule="evenodd"/>
<path transform="matrix(1,0,0,-1,1,151)" stroke-width=".8" stroke-linecap="butt" stroke-miterlimit="10" stroke-linejoin="miter" fill="none" stroke="#2f3465" d="M22.37437 92H60.37437C64.79677 92 68.37437 95.5776 68.37437 100 68.37437 104.4224 64.79677 108 60.37437 108H22.37437C17.95197 108 14.37437 104.4224 14.37437 100 14.37437 95.5776 17.95197 92 22.37437 92Z"/>
<text fill="#1b2a4a" xml:space="preserve" transform="matrix(1 0 -0 1 1 151)" font-size="6" font-family="Arial, Helvetica, sans-serif" font-weight="bold"><tspan y="-97.8" x="22.36937 26.70137 30.36737 33.70337 37.039369 39.373369 41.37137 44.707368 46.375368 50.041368 52.039369 53.707368 57.043367">Uncertainties</tspan></text>
<path transform="matrix(1,0,0,-1,1,151)" d="M115.8 74C115.8 84.49341 107.2934 93 96.8 93 86.30659 93 77.8 84.49341 77.8 74 77.8 63.50659 86.30659 55 96.8 55 107.2934 55 115.8 63.50659 115.8 74" fill="#1b2a4a" fill-rule="evenodd"/>
<text fill="#ffffff" xml:space="preserve" transform="matrix(1 0 -0 1 1 151)" font-size="5.6" font-family="Arial, Helvetica, sans-serif" font-weight="bold"><tspan y="-75" x="82.8 86.5352 90.5784 94.935199 98.97839 102.399997 106.13519">PROBLEM</tspan></text>
<text fill="#ffffff" xml:space="preserve" transform="matrix(1 0 -0 1 1 151)" font-size="5.6" font-family="Arial, Helvetica, sans-serif" font-weight="bold"><tspan y="-68" x="86.2216 90.2648 91.8216 95.8648 99.6 103.3352">&#x0026; USER</tspan></text>
</svg>

<line x1="24" y1="266" x2="376" y2="266" stroke="#d7dbe6" stroke-width="1"/>
<text x="24" y="284" font-family="Arial, Helvetica, sans-serif" font-size="11" font-weight="700" fill="#2F3465">Unit 6 · Defining the Problem</text>
<text x="376" y="284" text-anchor="end" font-family="Arial, Helvetica, sans-serif" font-size="10" fill="#5b6577">© Dr. H. HAAS</text></svg>