<svg xmlns="http://www.w3.org/2000/svg" viewBox="0 0 400 300" width="400" height="300" role="img" aria-label="Mark A. Runco &amp; Garrett J. Jaeger author thumbnail">
<rect width="400" height="300" fill="#ffffff"/>
<rect width="400" height="8" fill="#b45309"/><rect x="0" y="8" width="400" height="34" fill="#1B2A4A"/>
<text x="24" y="30" font-family="Arial, Helvetica, sans-serif" font-size="12" font-weight="700" fill="#ffffff">BCOBM126 · AUTHOR</text>
<text x="376" y="30" text-anchor="end" font-family="Arial, Helvetica, sans-serif" font-size="12" font-weight="700" fill="#cbd2e8">U1</text>
<text x="24" y="66" font-family="Arial, Helvetica, sans-serif" font-size="9.5" font-weight="700" letter-spacing="1.2" fill="#B45309">THINKER PROFILE</text>
<text x="24" y="90" font-family="Arial, Helvetica, sans-serif" font-size="17.5" font-weight="700" fill="#2F3465">Mark A. Runco</text>
<text x="24" y="110.5" font-family="Arial, Helvetica, sans-serif" font-size="17.5" font-weight="700" fill="#2F3465">&amp; Garrett J.</text>
<text x="24" y="131.0" font-family="Arial, Helvetica, sans-serif" font-size="17.5" font-weight="700" fill="#2F3465">Jaeger</text>
<rect x="24" y="147.5" width="34" height="3" fill="#b45309"/>
<text x="24" y="167.5" font-family="Arial, Helvetica, sans-serif" font-size="11" fill="#5b6577">The Standard Definition of</text>
<text x="24" y="182.5" font-family="Arial, Helvetica, sans-serif" font-size="11" fill="#5b6577">Creativity — Originality ×</text>
<text x="24" y="197.5" font-family="Arial, Helvetica, sans-serif" font-size="11" fill="#5b6577">Effectiveness</text>
<svg x="154.0" y="56.0" width="224.0" height="204.0" preserveAspectRatio="xMidYMid meet" xmlns="http://www.w3.org/2000/svg" xmlns:xlink="http://www.w3.org/1999/xlink" xmlns:inkscape="http://www.inkscape.org/namespaces/inkscape" version="1.1"  viewBox="0 0 153.0709 116">
<path transform="matrix(1,0,0,-1,0,116)" d="M5.5 .5H147.5709C150.3349 .5 152.5709 2.736 152.5709 5.5V110.5C152.5709 113.264 150.3349 115.5 147.5709 115.5H5.5C2.736 115.5 .5 113.264 .5 110.5V5.5C.5 2.736 2.736 .5 5.5 .5Z" fill="#fafbfd" fill-rule="evenodd"/>
<path transform="matrix(1,0,0,-1,0,116)" stroke-width=".7" stroke-linecap="butt" stroke-miterlimit="10" stroke-linejoin="miter" fill="none" stroke="#d7dbe6" d="M5.5 .5H147.5709C150.3349 .5 152.5709 2.736 152.5709 5.5V110.5C152.5709 113.264 150.3349 115.5 147.5709 115.5H5.5C2.736 115.5 .5 113.264 .5 110.5V5.5C.5 2.736 2.736 .5 5.5 .5Z"/>
<path transform="matrix(1,0,0,-1,0,116)" d="M.5 90H152.5709V115.5H.5Z" fill="#f1f2f7" fill-rule="evenodd"/>
<path transform="matrix(1,0,0,-1,0,116)" d="M24.5 102.5C24.5 107.7467 20.24671 112 15 112 9.753295 112 5.5 107.7467 5.5 102.5 5.5 97.25329 9.753295 93 15 93 20.24671 93 24.5 97.25329 24.5 102.5" fill="#2f3465" fill-rule="evenodd"/>
<text fill="#ffffff" xml:space="preserve" transform="matrix(1 0 -0 1 0 116)" font-size="6.2" font-family="Arial, Helvetica, sans-serif" font-weight="bold"><tspan y="-99.6" x="10.1764 14.652801 16.3764">R&#x00b7;J</tspan></text>
<text fill="#b45309" xml:space="preserve" transform="matrix(1 0 -0 1 0 116)" font-size="5.2" font-family="Arial, Helvetica, sans-serif" font-weight="bold"><tspan y="-105.5" x="29 33.0684 35.114004 39.7596 44.114004 48.468404 52.2456 56.600004 60.954404 65.022808 67.068408 72.00001 76.64561 81.00001 85.068408">SIGNATURE MODEL</tspan></text>
<text fill="#1b2a4a" xml:space="preserve" transform="matrix(1 0 -0 1 0 116)" font-size="7.2" font-family="Arial, Helvetica, sans-serif" font-weight="bold"><tspan y="-96.5" x="29 33.3992 37.7984 41.8016 43.8032 48.6056 51.003198 55.006399 59.405599 63.8048 67.808 70.608798 75.007999 77.0096 82.208 86.2112 88.608798 90.6104 95.0096 97.0112 99.4088 101.4104 105.8096">The Standard Definition</tspan></text>
<path transform="matrix(1,0,0,-1,0,116)" stroke-width=".6" stroke-linecap="round" stroke-miterlimit="10" stroke-linejoin="miter" fill="none" stroke="#d7dbe6" d="M.5 90H152.5709"/>
<path transform="matrix(1,0,0,-1,6.035455,110)" d="M77.5 40C77.5 52.70255 67.20255 63 54.5 63 41.79745 63 31.5 52.70255 31.5 40 31.5 27.29745 41.79745 17 54.5 17 67.20255 17 77.5 27.29745 77.5 40" fill="#2f3465" fill-opacity=".2" fill-rule="evenodd"/>
<path transform="matrix(1,0,0,-1,6.035455,110)" stroke-width=".8" stroke-linecap="butt" stroke-miterlimit="10" stroke-linejoin="miter" fill="none" stroke="#2f3465" d="M77.5 40C77.5 52.70255 67.20255 63 54.5 63 41.79745 63 31.5 52.70255 31.5 40 31.5 27.29745 41.79745 17 54.5 17 67.20255 17 77.5 27.29745 77.5 40"/>
<path transform="matrix(1,0,0,-1,6.035455,110)" d="M109.5 40C109.5 52.70255 99.20255 63 86.5 63 73.79745 63 63.5 52.70255 63.5 40 63.5 27.29745 73.79745 17 86.5 17 99.20255 17 109.5 27.29745 109.5 40" fill="#b45309" fill-opacity=".2" fill-rule="evenodd"/>
<path transform="matrix(1,0,0,-1,6.035455,110)" stroke-width=".8" stroke-linecap="butt" stroke-miterlimit="10" stroke-linejoin="miter" fill="none" stroke="#b45309" d="M109.5 40C109.5 52.70255 99.20255 63 86.5 63 73.79745 63 63.5 52.70255 63.5 40 63.5 27.29745 73.79745 17 86.5 17 99.20255 17 109.5 27.29745 109.5 40"/>
<text fill="#1b2a4a" xml:space="preserve" transform="matrix(1 0 -0 1 6.035455 110)" font-size="6" font-family="Arial, Helvetica, sans-serif" font-weight="bold"><tspan y="-62" x="1 5.668 8.002001 9.670001 13.336 15.004001 18.67 22.006 23.674 25.342 27.339999">Originality</tspan></text>
<text fill="#5b6577" xml:space="preserve" transform="matrix(1 0 -0 1 6.035455 110)" font-size="5.2" font-family="Arial, Helvetica, sans-serif" font-style="italic"><tspan y="-55" x="1 3.8912 6.7824 9.3824009 12.273601">novel</tspan></text>
<text fill="#1b2a4a" xml:space="preserve" transform="matrix(1 0 -0 1 6.035455 110)" font-size="6" font-family="Arial, Helvetica, sans-serif" font-weight="bold"><tspan y="-62" x="101.318 105.32 107.318 109.316 112.652 115.988 117.986 119.654 122.99 126.326 129.99199 133.32799 136.66399">Effectiveness</tspan></text>
<text fill="#5b6577" xml:space="preserve" transform="matrix(1 0 -0 1 6.035455 110)" font-size="5.2" font-family="Arial, Helvetica, sans-serif" font-style="italic"><tspan y="-55" x="126.1264 129.01761 131.61762 134.50882 135.95442 138.84563">useful</tspan></text>
<path transform="matrix(1,0,0,-1,6.035455,110)" d="M60 35.5H81C83.4876 35.5 85.5 37.5124 85.5 40 85.5 42.4876 83.4876 44.5 81 44.5H60C57.5124 44.5 55.5 42.4876 55.5 40 55.5 37.5124 57.5124 35.5 60 35.5Z" fill="#1b2a4a" fill-rule="evenodd"/>
<text fill="#ffffff" xml:space="preserve" transform="matrix(1 0 -0 1 6.035455 110)" font-size="5" font-family="Arial, Helvetica, sans-serif" font-weight="bold"><tspan y="-38" x="57.86 61.47 65.08 68.415 72.025 75.08 76.47 79.805">CREATIVE</tspan></text>
<text fill="#b45309" xml:space="preserve" transform="matrix(1 0 -0 1 6.035455 110)" font-size="5.4" font-family="Arial, Helvetica, sans-serif" font-weight="bold" font-style="italic"><tspan y="-2" x="36.1344 39.4338 42.7332 44.5314 47.8308 49.332 52.3344 54.435 55.936204 57.7344 60.7368 62.837404 64.3386 67.341 68.8422 71.844608 73.945209 76.94761 78.44881 81.74821 84.75061 87.75301 90.75542 93.75782 96.76022 99.76263 101.86323">both criteria are necessary</tspan></text>
</svg>

<line x1="24" y1="266" x2="376" y2="266" stroke="#d7dbe6" stroke-width="1"/>
<text x="24" y="284" font-family="Arial, Helvetica, sans-serif" font-size="11" font-weight="700" fill="#2F3465">Author Slibrary</text>
<text x="376" y="284" text-anchor="end" font-family="Arial, Helvetica, sans-serif" font-size="10" fill="#5b6577">© Dr. H. HAAS</text></svg>